# xmcd CD database file
#
# Track frame offsets:
#	150
#	16302
#	38753
#	66827
#	90489
#	114510
#	137475
#	154850
#	179079
#	203520
#	215898
#	242475
#
# Disc length: 3764 seconds
#
# Revision: 0
# Processed by: cddbd v1.5.2PL0 Copyright (c) Steve Scherf et al.
# Submitted via: CDex 1.51
#
DISCID=a10eb20c
DTITLE=Dave Brubeck Quartet - Take Five
DYEAR=2005
DGENRE=Jazz
TTITLE0=Audrey
TTITLE1=Jeepers Creepers
TTITLE2=Pennies From Heaven
TTITLE3=Why Do I Love You
TTITLE4=Stompin' for Mili
TTITLE5=Keepin' Out Of Mischief Now
TTITLE6=A Fine Romance
TTITLE7=Brother, Can You Spare A Dime
TTITLE8=Sometimes I'm Happy
TTITLE9=The Duke
TTITLE10=Indiana
TTITLE11=Love Walked In
EXTD=YEAR: 2005
EXTT0=
EXTT1=
EXTT2=
EXTT3=
EXTT4=
EXTT5=
EXTT6=
EXTT7=
EXTT8=
EXTT9=
EXTT10=
EXTT11=
PLAYORDER=
